<svg data-v-fde0c5aa="" xmlns="http://www.w3.org/2000/svg" viewBox="0 0 300 300" class="iconLeft"><!----><defs data-v-fde0c5aa=""><!----></defs><rect data-v-fde0c5aa="" fill="#3949ab" x="0" y="0" width="300px" height="300px" class="logo-background-square"></rect><defs data-v-fde0c5aa=""><!----></defs><g data-v-fde0c5aa="" id="d51229e9-9dc1-40e9-afd3-1b4b7f21ba39" fill="#ffffff" transform="matrix(2.260282278060913,0,0,2.260282278060913,102.4777529152618,134.968240252129)"><path d="M0.70 10.23L0.70 10.23L0.70 8.76L0.70 8.76Q0.70 8.54 0.92 8.54L0.92 8.54L2.38 8.54L2.38 8.54Q2.60 8.54 2.60 8.76L2.60 8.76L2.60 9.84L2.60 9.84Q2.60 10.40 3.17 10.40L3.17 10.40L3.83 10.40L3.83 10.40Q4.40 10.40 4.40 9.84L4.40 9.84L4.40 7.98L1.08 6.89L1.08 6.89Q0.70 6.77 0.70 6.37L0.70 6.37L0.70 3.07L0.70 3.07Q0.70 2.08 1.22 1.57L1.22 1.57L1.22 1.57Q1.74 1.05 2.71 1.05L2.71 1.05L4.29 1.05L4.29 1.05Q5.28 1.05 5.79 1.57L5.79 1.57L5.79 1.57Q6.30 2.08 6.30 3.07L6.30 3.07L6.30 4.55L6.30 4.55Q6.30 4.77 6.08 4.77L6.08 4.77L4.62 4.77L4.62 4.77Q4.40 4.77 4.40 4.55L4.40 4.55L4.40 3.46L4.40 3.46Q4.40 2.90 3.83 2.90L3.83 2.90L3.17 2.90L3.17 2.90Q2.90 2.90 2.75 3.05L2.75 3.05L2.75 3.05Q2.60 3.19 2.60 3.46L2.60 3.46L2.60 5.39L5.93 6.48L5.93 6.48Q6.30 6.63 6.30 7L6.30 7L6.30 10.23L6.30 10.23Q6.30 11.22 5.79 11.74L5.79 11.74L5.79 11.74Q5.28 12.25 4.29 12.25L4.29 12.25L2.71 12.25L2.71 12.25Q1.74 12.25 1.22 11.73L1.22 11.73L1.22 11.73Q0.70 11.22 0.70 10.23ZM7.70 10.23L7.70 10.23L7.70 4.46L7.70 4.46Q7.70 3.47 8.22 2.96L8.22 2.96L8.22 2.96Q8.74 2.45 9.73 2.45L9.73 2.45L11.30 2.45L11.30 2.45Q12.28 2.45 12.80 2.96L12.80 2.96L12.80 2.96Q13.32 3.48 13.32 4.46L13.32 4.46L13.32 5.97L13.32 5.97Q13.32 6.08 13.25 6.14L13.25 6.14L13.25 6.14Q13.19 6.20 13.09 6.20L13.09 6.20L11.77 6.20L11.77 6.20Q11.55 6.20 11.55 5.97L11.55 5.97L11.55 4.83L11.55 4.83Q11.55 4.27 10.99 4.27L10.99 4.27L10.10 4.27L10.10 4.27Q9.54 4.27 9.54 4.83L9.54 4.83L9.54 9.91L9.54 9.91Q9.54 10.47 10.10 10.47L10.10 10.47L10.99 10.47L10.99 10.47Q11.55 10.47 11.55 9.91L11.55 9.91L11.55 8.72L11.55 8.72Q11.55 8.50 11.77 8.50L11.77 8.50L13.09 8.50L13.09 8.50Q13.19 8.50 13.25 8.56L13.25 8.56L13.25 8.56Q13.32 8.62 13.32 8.72L13.32 8.72L13.32 10.23L13.32 10.23Q13.32 11.22 12.80 11.73L12.80 11.73L12.80 11.73Q12.28 12.25 11.30 12.25L11.30 12.25L9.73 12.25L9.73 12.25Q8.74 12.25 8.22 11.74L8.22 11.74L8.22 11.74Q7.70 11.22 7.70 10.23ZM14.71 10.23L14.71 10.23L14.71 4.46L14.71 4.46Q14.71 3.47 15.22 2.96L15.22 2.96L15.22 2.96Q15.74 2.45 16.73 2.45L16.73 2.45L18.30 2.45L18.30 2.45Q19.29 2.45 19.80 2.96L19.80 2.96L19.80 2.96Q20.32 3.47 20.32 4.46L20.32 4.46L20.32 10.23L20.32 10.23Q20.32 11.22 19.80 11.74L19.80 11.74L19.80 11.74Q19.29 12.25 18.30 12.25L18.30 12.25L16.73 12.25L16.73 12.25Q15.74 12.25 15.22 11.74L15.22 11.74L15.22 11.74Q14.71 11.22 14.71 10.23ZM16.54 4.82L16.54 9.88L16.54 9.88Q16.54 10.45 17.10 10.45L17.10 10.45L17.99 10.45L17.99 10.45Q18.55 10.45 18.55 9.88L18.55 9.88L18.55 4.82L18.55 4.82Q18.55 4.26 17.99 4.26L17.99 4.26L17.10 4.26L17.10 4.26Q16.54 4.26 16.54 4.82L16.54 4.82ZM21.71 12.02L21.71 12.02L21.71 2.67L21.71 2.67Q21.71 2.57 21.77 2.51L21.77 2.51L21.77 2.51Q21.83 2.45 21.94 2.45L21.94 2.45L25.30 2.45L25.30 2.45Q26.29 2.45 26.80 2.96L26.80 2.96L26.80 2.96Q27.32 3.47 27.32 4.46L27.32 4.46L27.32 7.28L27.32 7.28Q27.32 8.50 26.53 8.99L26.53 8.99L27.25 12.00L27.25 12.00Q27.32 12.25 27.06 12.25L27.06 12.25L25.69 12.25L25.69 12.25Q25.49 12.25 25.45 12.05L25.45 12.05L24.78 9.30L23.54 9.30L23.54 12.02L23.54 12.02Q23.54 12.13 23.47 12.19L23.47 12.19L23.47 12.19Q23.41 12.25 23.31 12.25L23.31 12.25L21.94 12.25L21.94 12.25Q21.83 12.25 21.77 12.19L21.77 12.19L21.77 12.19Q21.71 12.13 21.71 12.02ZM23.54 4.26L23.54 7.49L24.93 7.49L24.93 7.49Q25.49 7.49 25.49 6.93L25.49 6.93L25.49 4.82L25.49 4.82Q25.49 4.26 24.93 4.26L24.93 4.26L23.54 4.26ZM28.71 12.02L28.71 12.02L28.71 2.67L28.71 2.67Q28.71 2.57 28.77 2.51L28.77 2.51L28.77 2.51Q28.83 2.45 28.92 2.45L28.92 2.45L34.08 2.45L34.08 2.45Q34.30 2.45 34.30 2.67L34.30 2.67L34.30 4.07L34.30 4.07Q34.30 4.31 34.08 4.31L34.08 4.31L30.62 4.31L30.62 6.47L33.25 6.47L33.25 6.47Q33.48 6.47 33.48 6.71L33.48 6.71L33.48 8.09L33.48 8.09Q33.48 8.33 33.25 8.33L33.25 8.33L30.62 8.33L30.62 10.40L34.08 10.40L34.08 10.40Q34.21 10.40 34.25 10.45L34.25 10.45L34.25 10.45Q34.30 10.50 34.30 10.62L34.30 10.62L34.30 12.02L34.30 12.02Q34.30 12.25 34.08 12.25L34.08 12.25L28.92 12.25L28.92 12.25Q28.83 12.25 28.77 12.19L28.77 12.19L28.77 12.19Q28.71 12.13 28.71 12.02ZM35.69 12.02L35.69 12.02L35.69 1.27L35.69 1.27Q35.69 1.05 35.92 1.05L35.92 1.05L39.28 1.05L39.28 1.05Q40.27 1.05 40.79 1.57L40.79 1.57L40.79 1.57Q41.31 2.08 41.31 3.07L41.31 3.07L41.31 5.64L41.31 5.64Q41.31 6.02 41.06 6.30L41.06 6.30L41.06 6.30Q40.81 6.58 40.43 6.64L40.43 6.64L40.43 6.67L40.43 6.67Q40.81 6.73 41.06 7L41.06 7L41.06 7Q41.31 7.27 41.31 7.66L41.31 7.66L41.31 10.23L41.31 10.23Q41.31 11.22 40.79 11.74L40.79 11.74L40.79 11.74Q40.27 12.25 39.28 12.25L39.28 12.25L35.92 12.25L35.92 12.25Q35.81 12.25 35.75 12.19L35.75 12.19L35.75 12.19Q35.69 12.13 35.69 12.02ZM37.61 7.57L37.61 10.40L38.88 10.40L38.88 10.40Q39.44 10.40 39.44 9.84L39.44 9.84L39.44 8.13L39.44 8.13Q39.44 7.57 38.88 7.57L38.88 7.57L37.61 7.57ZM37.61 2.90L37.61 5.73L38.88 5.73L38.88 5.73Q39.16 5.73 39.30 5.58L39.30 5.58L39.30 5.58Q39.44 5.44 39.44 5.18L39.44 5.18L39.44 3.46L39.44 3.46Q39.44 2.90 38.88 2.90L38.88 2.90L37.61 2.90ZM42.70 10.23L42.70 10.23L42.70 4.46L42.70 4.46Q42.70 3.47 43.22 2.96L43.22 2.96L43.22 2.96Q43.73 2.45 44.72 2.45L44.72 2.45L46.29 2.45L46.29 2.45Q47.28 2.45 47.80 2.96L47.80 2.96L47.80 2.96Q48.31 3.47 48.31 4.46L48.31 4.46L48.31 10.23L48.31 10.23Q48.31 11.22 47.80 11.74L47.80 11.74L47.80 11.74Q47.28 12.25 46.29 12.25L46.29 12.25L44.72 12.25L44.72 12.25Q43.73 12.25 43.22 11.74L43.22 11.74L43.22 11.74Q42.70 11.22 42.70 10.23ZM44.53 4.82L44.53 9.88L44.53 9.88Q44.53 10.45 45.09 10.45L45.09 10.45L45.99 10.45L45.99 10.45Q46.55 10.45 46.55 9.88L46.55 9.88L46.55 4.82L46.55 4.82Q46.55 4.26 45.99 4.26L45.99 4.26L45.09 4.26L45.09 4.26Q44.53 4.26 44.53 4.82L44.53 4.82ZM49.02 12.01L49.02 12.01L51.34 2.65L51.34 2.65Q51.39 2.45 51.58 2.45L51.58 2.45L53.53 2.45L53.53 2.45Q53.73 2.45 53.77 2.65L53.77 2.65L56.10 12.01L56.10 12.01Q56.11 12.06 56.11 12.09L56.11 12.09L56.11 12.09Q56.11 12.25 55.90 12.25L55.90 12.25L54.54 12.25L54.54 12.25Q54.36 12.25 54.32 12.05L54.32 12.05L53.87 10.29L51.24 10.29L50.80 12.05L50.80 12.05Q50.76 12.25 50.58 12.25L50.58 12.25L49.21 12.25L49.21 12.25Q49.01 12.25 49.01 12.10L49.01 12.10L49.01 12.10Q49.01 12.06 49.02 12.01ZM52.55 4.86L51.67 8.67L53.44 8.67L52.55 4.86ZM57.09 12.02L57.09 12.02L57.09 2.67L57.09 2.67Q57.09 2.57 57.15 2.51L57.15 2.51L57.15 2.51Q57.21 2.45 57.31 2.45L57.31 2.45L60.68 2.45L60.68 2.45Q61.67 2.45 62.18 2.96L62.18 2.96L62.18 2.96Q62.69 3.47 62.69 4.46L62.69 4.46L62.69 7.28L62.69 7.28Q62.69 8.50 61.91 8.99L61.91 8.99L62.63 12.00L62.63 12.00Q62.69 12.25 62.44 12.25L62.44 12.25L61.07 12.25L61.07 12.25Q60.87 12.25 60.83 12.05L60.83 12.05L60.16 9.30L58.91 9.30L58.91 12.02L58.91 12.02Q58.91 12.13 58.85 12.19L58.85 12.19L58.85 12.19Q58.79 12.25 58.69 12.25L58.69 12.25L57.31 12.25L57.31 12.25Q57.21 12.25 57.15 12.19L57.15 12.19L57.15 12.19Q57.09 12.13 57.09 12.02ZM58.91 4.26L58.91 7.49L60.31 7.49L60.31 7.49Q60.87 7.49 60.87 6.93L60.87 6.93L60.87 4.82L60.87 4.82Q60.87 4.26 60.31 4.26L60.31 4.26L58.91 4.26ZM64.09 12.02L64.09 12.02L64.09 2.67L64.09 2.67Q64.09 2.45 64.31 2.45L64.31 2.45L67.68 2.45L67.68 2.45Q68.67 2.45 69.18 2.97L69.18 2.97L69.18 2.97Q69.69 3.49 69.69 4.48L69.69 4.48L69.69 10.23L69.69 10.23Q69.69 11.22 69.18 11.74L69.18 11.74L69.18 11.74Q68.67 12.25 67.68 12.25L67.68 12.25L64.31 12.25L64.31 12.25Q64.09 12.25 64.09 12.02ZM65.99 4.30L65.99 10.40L67.28 10.40L67.28 10.40Q67.84 10.40 67.84 9.84L67.84 9.84L67.84 4.87L67.84 4.87Q67.84 4.30 67.28 4.30L67.28 4.30L65.99 4.30Z"></path></g><defs data-v-fde0c5aa=""><!----></defs><g data-v-fde0c5aa="" id="389a4b97-1ccd-406d-b578-420b458e621b" stroke="none" fill="#ffffff" transform="matrix(0.5673131346702576,0,0,0.5673131346702576,37.16343418720502,118.88420267386381)"><path d="M53.37 42.392a5.33 5.33 0 0 1-.308-.009c-3.557-.206-6.245-3.947-5.991-8.34.252-4.39 3.325-7.79 6.907-7.596 3.557.204 6.245 3.944 5.993 8.338-.246 4.265-3.146 7.607-6.601 7.607zm.301-13.217c-1.973 0-3.708 2.255-3.868 5.026-.164 2.838 1.402 5.334 3.418 5.45l.149.003c1.974 0 3.71-2.255 3.869-5.026.163-2.837-1.403-5.333-3.417-5.449l-.151-.004zM13.25 44.217c-3.683 0-6.796-3.207-7.241-7.461-.223-2.134.267-4.225 1.38-5.888 1.167-1.741 2.87-2.811 4.794-3.013 3.946-.416 7.415 2.928 7.885 7.428.224 2.134-.266 4.226-1.381 5.888-1.166 1.741-2.869 2.81-4.793 3.012a6.082 6.082 0 0 1-.644.034zm-.421-13.659c-.119 0-.239.007-.359.019-1.104.116-2.101.761-2.805 1.813-.76 1.132-1.09 2.582-.933 4.081.31 2.958 2.491 5.238 4.88 4.991 1.103-.116 2.1-.76 2.805-1.814.759-1.132 1.09-2.581.933-4.08-.297-2.809-2.281-5.01-4.521-5.01zM87.261 49.922a6.217 6.217 0 0 1-1.762-.255c-1.855-.55-3.334-1.914-4.162-3.837-.793-1.838-.892-3.985-.281-6.042 1.068-3.601 4.09-6.117 7.35-6.117.597 0 1.189.086 1.761.257 3.735 1.108 5.729 5.54 4.442 9.879-1.068 3.601-4.089 6.115-7.348 6.115zm1.144-13.514c-2.025 0-4.013 1.749-4.727 4.157-.43 1.445-.368 2.931.17 4.182.503 1.166 1.364 1.981 2.428 2.296.318.095.648.142.982.142 2.025 0 4.012-1.748 4.727-4.157.858-2.892-.308-5.797-2.598-6.477a3.426 3.426 0 0 0-.982-.143z"></path><path d="M93.068 56.892c-1.975-3.767-10.33-7.632-14.507-7.418-3.019.158-10.136 3.992-11.657 6.703-.251.446-.491 1.063-.703 1.789-.438-.063-.897-.11-1.344-.168-.116-2.423-.049-5.693.472-6.667.16-.299.525-.898.998-1.678 2.268-3.733 4.524-7.561 5.061-9.727.896-3.623-1.116-12.1-4.186-15.205-1.407-1.424-2.74-1.48-3.608-1.272-3.265.767-2.385 5.276-1.61 9.254.372 1.904.793 4.065.585 5.038-.292 1.372-2.606 4.839-3.871 5.798-1.645 1.25-6.398 1.547-8.877.865-1.897-.523-4.831-4.861-5.24-7.192-.2-1.138.451-3.517 1.025-5.616 1.115-4.082 2.381-8.71-.949-9.85-.786-.27-2.012-.337-3.394.871-3.405 2.976-6.223 12.991-5.42 17.034.399 2.021 1.833 4.405 3.218 6.71.991 1.648 2.014 3.352 2.429 4.591.329.982.54 4.512.606 6.724-5.645.548-10.785 1.551-15.15 2.91a1.37 1.37 0 0 0-.076-.506l-1.076-3.027c1.611.724 3.533 1.12 5.27.242 2.747-1.392 6.993-7.828 6.189-11.225-.354-1.496-1.545-2.358-3.268-2.365h-.013c-2.152 0-3.354 2.29-4.416 4.31-.329.625-.802 1.523-1.116 1.9-.741-.308-2.067-1.464-2.979-2.259-1.317-1.149-2.562-2.236-3.739-2.711-3.365-1.356-9.399 0-12.155 2.029-3.345 2.467-5.251 9.05-4.342 14.992.474 3.099 4.471 5.453 8.358 6.517-.994 1.385-1.534 2.849-1.534 4.372 0 8.781 17.584 15.656 40.03 15.656 22.447 0 40.03-6.875 40.03-15.655 0-.688-.119-1.36-.328-2.021 2.107-3.548 2.889-10.685 1.287-13.743zM21.369 62.51c-1.501-.838-3.663-1.503-5.899-2.185-.924-.283-2.043-.624-2.521-.823-.105-.664.063-2.383.399-3.998l.044-.218a1.369 1.369 0 0 0-2.672-.586c-1.247 5.685.009 6.612.422 6.917.543.402 1.529.714 3.531 1.323.869.266 2.354.719 3.644 1.199.568.211 1.097.427 1.519.633.314.154.571.304.737.442-.425.872-2.088.976-2.846.958-.031 0-.061-.004-.093-.004a12.196 12.196 0 0 1-1.891-.188c-3.69-.634-7.529-2.784-7.812-4.631-.731-4.772.792-10.553 3.259-12.372 2.075-1.527 7.152-2.644 9.508-1.695.749.302 1.926 1.33 2.964 2.235 1.642 1.433 3.193 2.786 4.664 2.981 1.736.237 2.667-1.538 3.653-3.412.409-.778 1.495-2.846 1.994-2.846.556.002.586.132.617.258.439 1.855-2.911 7.216-4.763 8.154-1.753.891-4.824-1.324-5.759-2.167a1.37 1.37 0 0 0-2.207 1.472l2.031 5.714.399 1.127c.056.154.138.288.236.406a42.399 42.399 0 0 0-3.158 1.306zm19.18 14.097h-4.105v-4.029h4.105v4.029zm5.401-6.772h-4.104v-4.027h4.104v4.027zm-1.125-12.588c-.051-1.618-.229-5.833-.742-7.363-.509-1.523-1.562-3.277-2.678-5.132-1.265-2.104-2.573-4.28-2.88-5.833-.625-3.154 1.938-12.169 4.537-14.44.114-.098.505-.411.708-.343.9.308-.294 4.676-.805 6.542-.713 2.606-1.385 5.07-1.081 6.81.538 3.059 3.981 8.469 7.21 9.357 2.849.783 8.651.656 11.259-1.323 1.632-1.239 4.439-5.279 4.894-7.407.322-1.519-.114-3.76-.577-6.131-.348-1.786-1.072-5.5-.448-6.067.34-.082.751.244 1.034.532 2.33 2.357 4.162 9.856 3.477 12.624-.481 1.942-3.36 6.685-4.744 8.963-.51.84-.901 1.488-1.072 1.81-.903 1.691-.896 5.526-.812 7.642a102.878 102.878 0 0 0-10.022-.487c-2.487-.004-4.909.084-7.258.246zM60.672 73.3h-4.105v-4.029h4.105V73.3zm29.468-5.587c-.185.516-.39.978-.612 1.373-.164.29-.335.554-.516.756a8.666 8.666 0 0 1-.373.391c-2.029 1.986-6.721 4.893-9.279 4.506-.671-.102-1.111-.425-1.415-1.037.407-.656 2.797-1.785 4.104-2.403 2.017-.955 3.927-1.86 4.932-3.022a3.68 3.68 0 0 0 .338-.448c.132-.213.258-.465.377-.741.17-.396.325-.846.464-1.324.515-1.771.809-3.908.809-4.965 0-.756-.612-1.368-1.368-1.368-.71 0-1.286.542-1.354 1.233-.004.044-.015.089-.015.134 0 .812-.194 2.116-.468 3.293-2.456-1.494-5.549-2.808-9.142-3.884l.314-.471 1.419-2.13a1.365 1.365 0 1 0-1.53-2.068c-1.312.394-3.735 1.33-5.232 3.188-.044.055-.076.118-.114.174-.255.37-.433.8-.544 1.283a8.301 8.301 0 0 0-.176 1.325 29.686 29.686 0 0 0-.042 1.865c-.003 3.161-.253 4.084-1.106 4.117-.224.009-.465-.021-.748-.485-.747-1.222-.813-3.737-.523-5.954.06-.458.135-.901.223-1.319.103-.485.22-.938.352-1.327.116-.348.244-.648.377-.887.991-1.761 7.061-5.186 9.415-5.308 3.182-.182 10.49 3.191 11.941 5.957.958 1.831.575 6.528-.508 9.546z"></path></g><!----></svg>