<svg data-v-fde0c5aa="" xmlns="http://www.w3.org/2000/svg" viewBox="0 0 300 300" class="font"><!----><defs data-v-fde0c5aa=""><!----></defs><rect data-v-fde0c5aa="" fill="#3949ab" x="0" y="0" width="300px" height="300px" class="logo-background-square"></rect><defs data-v-fde0c5aa=""><!----></defs><g data-v-fde0c5aa="" id="a876315c-3c1d-4a27-ad9a-30b5fd4ea1df" fill="#ffffff" transform="matrix(3.1887669563293457,0,0,3.1887669563293457,37.77035443324652,128.7934548748726)"><path d="M0.70 10.23L0.70 10.23L0.70 8.76L0.70 8.76Q0.70 8.54 0.92 8.54L0.92 8.54L2.38 8.54L2.38 8.54Q2.60 8.54 2.60 8.76L2.60 8.76L2.60 9.84L2.60 9.84Q2.60 10.40 3.17 10.40L3.17 10.40L3.83 10.40L3.83 10.40Q4.40 10.40 4.40 9.84L4.40 9.84L4.40 7.98L1.08 6.89L1.08 6.89Q0.70 6.77 0.70 6.37L0.70 6.37L0.70 3.07L0.70 3.07Q0.70 2.08 1.22 1.57L1.22 1.57L1.22 1.57Q1.74 1.05 2.71 1.05L2.71 1.05L4.29 1.05L4.29 1.05Q5.28 1.05 5.79 1.57L5.79 1.57L5.79 1.57Q6.30 2.08 6.30 3.07L6.30 3.07L6.30 4.55L6.30 4.55Q6.30 4.77 6.08 4.77L6.08 4.77L4.62 4.77L4.62 4.77Q4.40 4.77 4.40 4.55L4.40 4.55L4.40 3.46L4.40 3.46Q4.40 2.90 3.83 2.90L3.83 2.90L3.17 2.90L3.17 2.90Q2.90 2.90 2.75 3.05L2.75 3.05L2.75 3.05Q2.60 3.19 2.60 3.46L2.60 3.46L2.60 5.39L5.93 6.48L5.93 6.48Q6.30 6.63 6.30 7L6.30 7L6.30 10.23L6.30 10.23Q6.30 11.22 5.79 11.74L5.79 11.74L5.79 11.74Q5.28 12.25 4.29 12.25L4.29 12.25L2.71 12.25L2.71 12.25Q1.74 12.25 1.22 11.73L1.22 11.73L1.22 11.73Q0.70 11.22 0.70 10.23ZM7.70 10.23L7.70 10.23L7.70 4.46L7.70 4.46Q7.70 3.47 8.22 2.96L8.22 2.96L8.22 2.96Q8.74 2.45 9.73 2.45L9.73 2.45L11.30 2.45L11.30 2.45Q12.28 2.45 12.80 2.96L12.80 2.96L12.80 2.96Q13.32 3.48 13.32 4.46L13.32 4.46L13.32 5.97L13.32 5.97Q13.32 6.08 13.25 6.14L13.25 6.14L13.25 6.14Q13.19 6.20 13.09 6.20L13.09 6.20L11.77 6.20L11.77 6.20Q11.55 6.20 11.55 5.97L11.55 5.97L11.55 4.83L11.55 4.83Q11.55 4.27 10.99 4.27L10.99 4.27L10.10 4.27L10.10 4.27Q9.54 4.27 9.54 4.83L9.54 4.83L9.54 9.91L9.54 9.91Q9.54 10.47 10.10 10.47L10.10 10.47L10.99 10.47L10.99 10.47Q11.55 10.47 11.55 9.91L11.55 9.91L11.55 8.72L11.55 8.72Q11.55 8.50 11.77 8.50L11.77 8.50L13.09 8.50L13.09 8.50Q13.19 8.50 13.25 8.56L13.25 8.56L13.25 8.56Q13.32 8.62 13.32 8.72L13.32 8.72L13.32 10.23L13.32 10.23Q13.32 11.22 12.80 11.73L12.80 11.73L12.80 11.73Q12.28 12.25 11.30 12.25L11.30 12.25L9.73 12.25L9.73 12.25Q8.74 12.25 8.22 11.74L8.22 11.74L8.22 11.74Q7.70 11.22 7.70 10.23ZM14.71 10.23L14.71 10.23L14.71 4.46L14.71 4.46Q14.71 3.47 15.22 2.96L15.22 2.96L15.22 2.96Q15.74 2.45 16.73 2.45L16.73 2.45L18.30 2.45L18.30 2.45Q19.29 2.45 19.80 2.96L19.80 2.96L19.80 2.96Q20.32 3.47 20.32 4.46L20.32 4.46L20.32 10.23L20.32 10.23Q20.32 11.22 19.80 11.74L19.80 11.74L19.80 11.74Q19.29 12.25 18.30 12.25L18.30 12.25L16.73 12.25L16.73 12.25Q15.74 12.25 15.22 11.74L15.22 11.74L15.22 11.74Q14.71 11.22 14.71 10.23ZM16.54 4.82L16.54 9.88L16.54 9.88Q16.54 10.45 17.10 10.45L17.10 10.45L17.99 10.45L17.99 10.45Q18.55 10.45 18.55 9.88L18.55 9.88L18.55 4.82L18.55 4.82Q18.55 4.26 17.99 4.26L17.99 4.26L17.10 4.26L17.10 4.26Q16.54 4.26 16.54 4.82L16.54 4.82ZM21.71 12.02L21.71 12.02L21.71 2.67L21.71 2.67Q21.71 2.57 21.77 2.51L21.77 2.51L21.77 2.51Q21.83 2.45 21.94 2.45L21.94 2.45L25.30 2.45L25.30 2.45Q26.29 2.45 26.80 2.96L26.80 2.96L26.80 2.96Q27.32 3.47 27.32 4.46L27.32 4.46L27.32 7.28L27.32 7.28Q27.32 8.50 26.53 8.99L26.53 8.99L27.25 12.00L27.25 12.00Q27.32 12.25 27.06 12.25L27.06 12.25L25.69 12.25L25.69 12.25Q25.49 12.25 25.45 12.05L25.45 12.05L24.78 9.30L23.54 9.30L23.54 12.02L23.54 12.02Q23.54 12.13 23.47 12.19L23.47 12.19L23.47 12.19Q23.41 12.25 23.31 12.25L23.31 12.25L21.94 12.25L21.94 12.25Q21.83 12.25 21.77 12.19L21.77 12.19L21.77 12.19Q21.71 12.13 21.71 12.02ZM23.54 4.26L23.54 7.49L24.93 7.49L24.93 7.49Q25.49 7.49 25.49 6.93L25.49 6.93L25.49 4.82L25.49 4.82Q25.49 4.26 24.93 4.26L24.93 4.26L23.54 4.26ZM28.71 12.02L28.71 12.02L28.71 2.67L28.71 2.67Q28.71 2.57 28.77 2.51L28.77 2.51L28.77 2.51Q28.83 2.45 28.92 2.45L28.92 2.45L34.08 2.45L34.08 2.45Q34.30 2.45 34.30 2.67L34.30 2.67L34.30 4.07L34.30 4.07Q34.30 4.31 34.08 4.31L34.08 4.31L30.62 4.31L30.62 6.47L33.25 6.47L33.25 6.47Q33.48 6.47 33.48 6.71L33.48 6.71L33.48 8.09L33.48 8.09Q33.48 8.33 33.25 8.33L33.25 8.33L30.62 8.33L30.62 10.40L34.08 10.40L34.08 10.40Q34.21 10.40 34.25 10.45L34.25 10.45L34.25 10.45Q34.30 10.50 34.30 10.62L34.30 10.62L34.30 12.02L34.30 12.02Q34.30 12.25 34.08 12.25L34.08 12.25L28.92 12.25L28.92 12.25Q28.83 12.25 28.77 12.19L28.77 12.19L28.77 12.19Q28.71 12.13 28.71 12.02ZM35.69 12.02L35.69 12.02L35.69 1.27L35.69 1.27Q35.69 1.05 35.92 1.05L35.92 1.05L39.28 1.05L39.28 1.05Q40.27 1.05 40.79 1.57L40.79 1.57L40.79 1.57Q41.31 2.08 41.31 3.07L41.31 3.07L41.31 5.64L41.31 5.64Q41.31 6.02 41.06 6.30L41.06 6.30L41.06 6.30Q40.81 6.58 40.43 6.64L40.43 6.64L40.43 6.67L40.43 6.67Q40.81 6.73 41.06 7L41.06 7L41.06 7Q41.31 7.27 41.31 7.66L41.31 7.66L41.31 10.23L41.31 10.23Q41.31 11.22 40.79 11.74L40.79 11.74L40.79 11.74Q40.27 12.25 39.28 12.25L39.28 12.25L35.92 12.25L35.92 12.25Q35.81 12.25 35.75 12.19L35.75 12.19L35.75 12.19Q35.69 12.13 35.69 12.02ZM37.61 7.57L37.61 10.40L38.88 10.40L38.88 10.40Q39.44 10.40 39.44 9.84L39.44 9.84L39.44 8.13L39.44 8.13Q39.44 7.57 38.88 7.57L38.88 7.57L37.61 7.57ZM37.61 2.90L37.61 5.73L38.88 5.73L38.88 5.73Q39.16 5.73 39.30 5.58L39.30 5.58L39.30 5.58Q39.44 5.44 39.44 5.18L39.44 5.18L39.44 3.46L39.44 3.46Q39.44 2.90 38.88 2.90L38.88 2.90L37.61 2.90ZM42.70 10.23L42.70 10.23L42.70 4.46L42.70 4.46Q42.70 3.47 43.22 2.96L43.22 2.96L43.22 2.96Q43.73 2.45 44.72 2.45L44.72 2.45L46.29 2.45L46.29 2.45Q47.28 2.45 47.80 2.96L47.80 2.96L47.80 2.96Q48.31 3.47 48.31 4.46L48.31 4.46L48.31 10.23L48.31 10.23Q48.31 11.22 47.80 11.74L47.80 11.74L47.80 11.74Q47.28 12.25 46.29 12.25L46.29 12.25L44.72 12.25L44.72 12.25Q43.73 12.25 43.22 11.74L43.22 11.74L43.22 11.74Q42.70 11.22 42.70 10.23ZM44.53 4.82L44.53 9.88L44.53 9.88Q44.53 10.45 45.09 10.45L45.09 10.45L45.99 10.45L45.99 10.45Q46.55 10.45 46.55 9.88L46.55 9.88L46.55 4.82L46.55 4.82Q46.55 4.26 45.99 4.26L45.99 4.26L45.09 4.26L45.09 4.26Q44.53 4.26 44.53 4.82L44.53 4.82ZM49.02 12.01L49.02 12.01L51.34 2.65L51.34 2.65Q51.39 2.45 51.58 2.45L51.58 2.45L53.53 2.45L53.53 2.45Q53.73 2.45 53.77 2.65L53.77 2.65L56.10 12.01L56.10 12.01Q56.11 12.06 56.11 12.09L56.11 12.09L56.11 12.09Q56.11 12.25 55.90 12.25L55.90 12.25L54.54 12.25L54.54 12.25Q54.36 12.25 54.32 12.05L54.32 12.05L53.87 10.29L51.24 10.29L50.80 12.05L50.80 12.05Q50.76 12.25 50.58 12.25L50.58 12.25L49.21 12.25L49.21 12.25Q49.01 12.25 49.01 12.10L49.01 12.10L49.01 12.10Q49.01 12.06 49.02 12.01ZM52.55 4.86L51.67 8.67L53.44 8.67L52.55 4.86ZM57.09 12.02L57.09 12.02L57.09 2.67L57.09 2.67Q57.09 2.57 57.15 2.51L57.15 2.51L57.15 2.51Q57.21 2.45 57.31 2.45L57.31 2.45L60.68 2.45L60.68 2.45Q61.67 2.45 62.18 2.96L62.18 2.96L62.18 2.96Q62.69 3.47 62.69 4.46L62.69 4.46L62.69 7.28L62.69 7.28Q62.69 8.50 61.91 8.99L61.91 8.99L62.63 12.00L62.63 12.00Q62.69 12.25 62.44 12.25L62.44 12.25L61.07 12.25L61.07 12.25Q60.87 12.25 60.83 12.05L60.83 12.05L60.16 9.30L58.91 9.30L58.91 12.02L58.91 12.02Q58.91 12.13 58.85 12.19L58.85 12.19L58.85 12.19Q58.79 12.25 58.69 12.25L58.69 12.25L57.31 12.25L57.31 12.25Q57.21 12.25 57.15 12.19L57.15 12.19L57.15 12.19Q57.09 12.13 57.09 12.02ZM58.91 4.26L58.91 7.49L60.31 7.49L60.31 7.49Q60.87 7.49 60.87 6.93L60.87 6.93L60.87 4.82L60.87 4.82Q60.87 4.26 60.31 4.26L60.31 4.26L58.91 4.26ZM64.09 12.02L64.09 12.02L64.09 2.67L64.09 2.67Q64.09 2.45 64.31 2.45L64.31 2.45L67.68 2.45L67.68 2.45Q68.67 2.45 69.18 2.97L69.18 2.97L69.18 2.97Q69.69 3.49 69.69 4.48L69.69 4.48L69.69 10.23L69.69 10.23Q69.69 11.22 69.18 11.74L69.18 11.74L69.18 11.74Q68.67 12.25 67.68 12.25L67.68 12.25L64.31 12.25L64.31 12.25Q64.09 12.25 64.09 12.02ZM65.99 4.30L65.99 10.40L67.28 10.40L67.28 10.40Q67.84 10.40 67.84 9.84L67.84 9.84L67.84 4.87L67.84 4.87Q67.84 4.30 67.28 4.30L67.28 4.30L65.99 4.30Z"></path></g><!----><!----></svg>